# xmcd
#
# Track frame offsets: 
#        150
#        27458
#        52880
#        98217
#        123674
#        143557
#        165456
#        182826
#        210683
#        238359
#        263988
#        287115
#        317957
#
# Disc length: 4682 seconds
#
# Revision: 0
# Processed by: cddbd v1.5.2PL0 Copyright (c) Steve Scherf et al.
# Submitted via: ExactAudioCopyFreeDBPlugin 1.0
#
DISCID=c512480d
DTITLE=Big Daddy Wilson - LIVE IN LUXEMBOURG AT L'INOUI
DYEAR=2013
DGENRE=Blues
TTITLE0=DON'T EVER LET NOBODY DRAG YOUR SPIRIT DOWN 
TTITLE1=DROP DOWN HERE
TTITLE2=WALK A WHILE IN MY SHOES
TTITLE3=WHO'S DAT KNOCKING
TTITLE4=STRANGER
TTITLE5=JOHN THE REVELATOR
TTITLE6=THUNB A RIDE
TTITLE7=ANNA MAE
TTITLE8=TEXAS BOOGIE
TTITLE9=INTERCITY TRAIN
TTITLE10=THIS IS HOW I LIVE
TTITLE11=I HEARD THE ANGEL SING
TTITLE12=COUNTRY BOY
EXTD=
EXTT0=
EXTT1=
EXTT2=
EXTT3=
EXTT4=
EXTT5=
EXTT6=
EXTT7=
EXTT8=
EXTT9=
EXTT10=
EXTT11=
EXTT12=
PLAYORDER=
